<svg id="Layer_1" data-name="Layer 1" xmlns="http://www.w3.org/2000/svg" viewBox="0 0 128 128"><defs><style>.cls-1{fill:#071d24;stroke:#25bae5;stroke-miterlimit:10;stroke-width:2px;}.cls-2{fill:#dcf1f9;}</style></defs><rect class="cls-1" x="11.12" y="12.25" width="105.76" height="103.51" rx="7.09"/><path class="cls-2" d="M35.42,83.13V44.24c12.88,0,19.27-.13,21.94.58A10.28,10.28,0,0,1,63,48.63c2.91,3.79,2.78,10.16.95,13.6a11.07,11.07,0,0,1-7.37,5.68c-3.45.68-8.56.55-13.27.55V83.13Zm7.85-32.31v11c8,0,11.06.25,13-2.52a5.52,5.52,0,0,0-.36-6.53c-2-2.2-4.16-2-12.6-2Zm0,0"/><path class="cls-2" d="M66.26,75.09,73.74,74c.7,3.18,2.84,4.43,6,4.43,2.43,0,5.33-.61,5.33-3,0-1.64-1.37-2-3-2.38q-9-2-11.44-3.64A7.25,7.25,0,0,1,67.3,63a7.83,7.83,0,0,1,2.89-6.16q2.9-2.49,9-2.49c6.15,0,10.75,1.48,12.47,7.46l-7,1.3a4.32,4.32,0,0,0-1.71-2.52c-1.92-1.34-6.32-1-7.81-.06A1.69,1.69,0,0,0,75,63.37c2.16,1.59,11.39,2.17,15.29,5.41a6.92,6.92,0,0,1,2.33,5.55A8.48,8.48,0,0,1,89.34,81c-2.15,1.86-5.35,2.79-9.57,2.79q-5.76,0-9.12-2.34a10.77,10.77,0,0,1-4.39-6.34Zm0,0"/></svg>